<?xml version="1.0" encoding="UTF-8"?><svg id="Layer_1" xmlns="http://www.w3.org/2000/svg" xmlns:xlink="http://www.w3.org/1999/xlink" viewBox="0 0 440 340"><defs><style>.cls-1{fill:url(#linear-gradient);stroke:#fff;stroke-miterlimit:10;stroke-width:10px;}</style><linearGradient id="linear-gradient" x1="49.06" y1="370.27" x2="390.94" y2="28.38" gradientUnits="userSpaceOnUse"><stop offset="0" stop-color="#d6e8b7"/><stop offset=".5" stop-color="#a4d7bc"/><stop offset="1" stop-color="#9fbdcd"/></linearGradient></defs><path class="cls-1" d="M420,335H20c-6.07,0-11.54-3.65-13.86-9.26-2.32-5.61-1.04-12.06,3.25-16.35l78.85-78.85C40.23,216.73,5,172.4,5,120,5,56.59,56.59,5,120,5h100c8.28,0,15,6.72,15,15s-6.72,15-15,15H120c-46.87,0-85,38.13-85,85s34.92,81.7,79,84.79L309.39,9.39c2.81-2.81,6.63-4.39,10.61-4.39,63.41,0,115,51.59,115,115s-51.59,115-115,115H126.21l-70,70H420c8.28,0,15,6.72,15,15s-6.72,15-15,15ZM156.21,205h163.79c46.87,0,85-38.13,85-85s-34.92-81.7-79-84.79L156.21,205Z"/></svg>